<svg version="1.1" viewBox="0.0 0.0 960.0 720.0" fill="none" stroke="none" stroke-linecap="square" stroke-miterlimit="10" xmlns:xlink="http://www.w3.org/1999/xlink" xmlns="http://www.w3.org/2000/svg"><clipPath id="p.0"><path d="m0 0l960.0 0l0 720.0l-960.0 0l0 -720.0z" clip-rule="nonzero"/></clipPath><g clip-path="url(#p.0)"><path fill="#000000" fill-opacity="0.0" d="m0 0l960.0 0l0 720.0l-960.0 0z" fill-rule="evenodd"/><g filter="url(#shadowFilter-p.1)"><use xlink:href="#p.1" transform="matrix(1.0 0.0 0.0 1.0 -5.991029594201115 9.225376399483267)"/></g><defs><filter id="shadowFilter-p.1" filterUnits="userSpaceOnUse"><feGaussianBlur in="SourceAlpha" stdDeviation="3.0" result="blur"/><feComponentTransfer in="blur" color-interpolation-filters="sRGB"><feFuncR type="linear" slope="0" intercept="0.06666667"/><feFuncG type="linear" slope="0" intercept="0.33333334"/><feFuncB type="linear" slope="0" intercept="0.8"/><feFuncA type="linear" slope="0.46" intercept="0"/></feComponentTransfer></filter></defs><g id="p.1"><path fill="#000000" fill-opacity="0.0" d="m34.120735 315.55643l872.56696 0l0 100.75592l-872.56696 0z" fill-rule="evenodd"/><path fill="#6fa8dc" d="m78.751625 407.01437q-2.46875 0 -4.15625 -1.671875q-1.671875 -1.6875 -1.671875 -4.15625l0 -75.8125q0 -2.578125 1.671875 -4.203125q1.6875 -1.625 4.15625 -1.625l20.265625 0q9.625 0 17.515625 3.1875q7.90625 3.1875 13.734367 9.078125q5.828125 5.875 8.953125 13.828125q3.140625 7.953125 3.140625 17.578125q0 9.640625 -3.140625 17.65625q-3.125 8.0 -8.953125 13.875q-5.8281174 5.875 -13.734367 9.078125q-7.890625 3.1875 -17.515625 3.1875l-20.265625 0zm5.8125 -10.296875l14.453125 0q9.40625 0 16.625 -4.3125q7.234375 -4.3125 11.375 -11.875q4.1406174 -7.5625 4.1406174 -17.3125q0 -9.84375 -4.1406174 -17.34375q-4.140625 -7.515625 -11.375 -11.765625q-7.21875 -4.265625 -16.625 -4.265625l-14.453125 0l0 66.875z" fill-rule="nonzero"/><path fill="#6fa8dc" d="m201.0101 408.155q-9.28125 0 -17.375 -3.484375q-8.078125 -3.5 -14.09375 -9.75q-6.015625 -6.25 -9.40625 -14.609375q-3.375 -8.375 -3.375 -18.125q0 -9.640625 3.375 -17.953125q3.390625 -8.3125 9.40625 -14.546875q6.015625 -6.25 14.03125 -9.796875q8.03125 -3.5625 17.4375 -3.5625q8.828125 0 15.1875 2.296875q6.375 2.28125 12.796875 7.5625q0.90625 0.6875 1.421875 1.4375q0.515625 0.734375 0.6875 1.484375q0.171875 0.75 0.171875 1.78125q0 2.171875 -1.546875 3.609375q-1.546875 1.421875 -3.734375 1.59375q-2.171875 0.171875 -4.234375 -1.421875q-4.234375 -3.671875 -8.765625 -5.625q-4.53125 -1.953125 -11.984375 -1.953125q-6.765625 0 -12.734375 2.765625q-5.953125 2.75 -10.484375 7.5625q-4.53125 4.8125 -7.0625 11.1875q-2.515625 6.359375 -2.515625 13.578125q0 7.328125 2.515625 13.703125q2.53125 6.359375 7.0625 11.171875q4.53125 4.8125 10.484375 7.515625q5.96875 2.6875 12.734375 2.6875q5.84375 0 11.0625 -2.0q5.21875 -2.015625 10.03125 -5.5625q2.0625 -1.484375 4.0625 -1.3125q2.015625 0.171875 3.390625 1.609375q1.375 1.421875 1.375 3.9375q0 1.15625 -0.453125 2.25q-0.453125 1.078125 -1.375 2.0q-6.1875 4.9375 -13.25 7.453125q-7.046875 2.515625 -14.84375 2.515625zm54.806625 -1.140625q-2.515625 0 -4.1875 -1.71875q-1.65625 -1.71875 -1.65625 -4.25l0 -77.609375q0 -2.640625 1.65625 -4.296875q1.671875 -1.671875 4.1875 -1.671875q2.7500153 0 4.5937653 2.171875l49.984344 66.5l0 -62.703125q0 -2.640625 1.71875 -4.296875q1.71875 -1.671875 4.25 -1.671875q2.625 0 4.234375 1.671875q1.609375 1.65625 1.609375 4.296875l0 77.609375q0 2.53125 -1.609375 4.25q-1.609375 1.71875 -4.234375 1.71875q-1.15625 0 -2.484375 -0.515625q-1.3125 -0.515625 -2.109375 -1.546875l-49.984344 -66.5l0 62.59375q0 2.53125 -1.671875 4.25q-1.65625 1.71875 -4.2968903 1.71875z" fill-rule="nonzero"/><path fill="#000000" d="m384.68503 407.01437q-2.515625 0 -4.234375 -1.71875q-1.71875 -1.71875 -1.71875 -4.25l0 -77.609375q0 -2.640625 1.71875 -4.296875q1.71875 -1.671875 4.234375 -1.671875l22.9375 0q8.59375 0 15.25 3.78125q6.65625 3.78125 10.375 10.5q3.734375 6.703125 3.734375 15.421875q0 8.359375 -3.734375 14.90625q-3.71875 6.53125 -10.375 10.203125q-6.65625 3.65625 -15.25 3.65625l-16.96875 0l0 25.109375q0 2.53125 -1.671875 4.25q-1.65625 1.71875 -4.296875 1.71875zm5.96875 -42.078125l16.96875 0q5.28125 0 9.28125 -2.296875q4.015625 -2.296875 6.3125 -6.296875q2.296875 -4.015625 2.296875 -9.171875q0 -5.515625 -2.296875 -9.6875q-2.296875 -4.1875 -6.3125 -6.59375q-4.0 -2.421875 -9.28125 -2.421875l-16.96875 0l0 36.46875zm84.49686 42.53125q-9.28125 0 -16.390625 -4.0625q-7.109375 -4.078125 -11.1875 -11.234375q-4.0625 -7.171875 -4.0625 -16.453125q0 -9.40625 4.0625 -16.5625q4.078125 -7.171875 11.1875 -11.234375q7.109375 -4.078125 16.390625 -4.078125q9.171875 0 16.28125 4.078125q7.109375 4.0625 11.171875 11.234375q4.078125 7.15625 4.078125 16.5625q0 9.28125 -4.015625 16.453125q-4.0 7.15625 -11.109375 11.234375q-7.109375 4.0625 -16.40625 4.0625zm0 -10.3125q5.96875 0 10.546875 -2.75q4.59375 -2.75 7.171875 -7.5625q2.578125 -4.828125 2.578125 -11.125q0 -6.3125 -2.578125 -11.1875q-2.578125 -4.875 -7.171875 -7.625q-4.578125 -2.75 -10.546875 -2.75q-5.953125 0 -10.546875 2.75q-4.578125 2.75 -7.21875 7.625q-2.640625 4.875 -2.640625 11.1875q0 6.296875 2.640625 11.125q2.640625 4.8125 7.21875 7.5625q4.59375 2.75 10.546875 2.75zm54.580444 -29.359375q0 -6.875 3.375 -12.3125q3.390625 -5.453125 9.125 -8.65625q5.734375 -3.21875 12.609375 -3.21875q6.875 0 10.25 2.234375q3.390625 2.234375 2.59375 5.328125q-0.34375 1.609375 -1.328125 2.46875q-0.96875 0.859375 -2.234375 1.09375q-1.25 0.234375 -2.75 -0.109375q-7.328125 -1.5 -13.1875 -0.234375q-5.84375 1.265625 -9.234375 4.703125q-3.375 3.4375 -3.375 8.703125l-5.84375 0zm0.109375 39.21875q-2.75 0 -4.25 -1.421875q-1.484375 -1.4375 -1.484375 -4.3125l0 -51.25q0 -2.75 1.484375 -4.234375q1.5 -1.5 4.25 -1.5q2.875 0 4.296875 1.4375q1.4375 1.4375 1.4375 4.296875l0 51.25q0 2.75 -1.4375 4.25q-1.421875 1.484375 -4.296875 1.484375zm72.81665 0q-5.734375 0 -10.328125 -2.921875q-4.578125 -2.921875 -7.21875 -7.96875q-2.640625 -5.046875 -2.640625 -11.359375l0 -54.6875q0 -2.515625 1.609375 -4.125q1.609375 -1.609375 4.125 -1.609375q2.53125 0 4.125 1.609375q1.609375 1.609375 1.609375 4.125l0 54.6875q0 4.59375 2.515625 7.6875q2.53125 3.09375 6.203125 3.09375l3.890625 0q2.0625 0 3.5 1.609375q1.4375 1.609375 1.4375 4.125q0 2.53125 -1.890625 4.140625q-1.890625 1.59375 -4.875 1.59375l-2.0625 0zm-25.453125 -50.5625q-2.40625 0 -3.90625 -1.375q-1.484375 -1.375 -1.484375 -3.4375q0 -2.296875 1.484375 -3.671875q1.5 -1.375 3.90625 -1.375l26.484375 0q2.40625 0 3.890625 1.375q1.5 1.375 1.5 3.671875q0 2.0625 -1.5 3.4375q-1.484375 1.375 -3.890625 1.375l-26.484375 0z" fill-rule="nonzero"/><path fill="#6fa8dc" d="m632.5718 407.01437q-2.171875 0 -3.890625 -1.59375q-1.71875 -1.609375 -1.71875 -4.25l0 -56.53125q0 -8.25 3.265625 -14.328125q3.265625 -6.078125 9.109375 -9.453125q5.859375 -3.390625 13.53125 -3.390625q2.53125 0 4.1875 1.5q1.65625 1.484375 1.65625 3.78125q0 2.171875 -1.65625 3.71875q-1.65625 1.546875 -4.1875 1.546875q-4.234375 0 -7.453125 1.953125q-3.203125 1.953125 -4.984375 5.390625q-1.78125 3.4375 -1.78125 8.140625l0 57.671875q0 2.640625 -1.609375 4.25q-1.59375 1.59375 -4.46875 1.59375zm-10.546875 -50.5625q-2.40625 0 -3.90625 -1.375q-1.484375 -1.375 -1.484375 -3.4375q0 -2.296875 1.484375 -3.671875q1.5 -1.375 3.90625 -1.375l28.328125 0q2.40625 0 3.890625 1.375q1.5 1.375 1.5 3.671875q0 2.0625 -1.5 3.4375q-1.484375 1.375 -3.890625 1.375l-28.328125 0zm72.00427 51.015625q-9.28125 0 -16.390625 -4.0625q-7.109375 -4.078125 -11.1875 -11.234375q-4.0625 -7.171875 -4.0625 -16.453125q0 -9.40625 4.0625 -16.5625q4.078125 -7.171875 11.1875 -11.234375q7.109375 -4.078125 16.390625 -4.078125q9.171875 0 16.28125 4.078125q7.109375 4.0625 11.171875 11.234375q4.078125 7.15625 4.078125 16.5625q0 9.28125 -4.015625 16.453125q-4.0 7.15625 -11.109375 11.234375q-7.109375 4.0625 -16.40625 4.0625zm0 -10.3125q5.96875 0 10.546875 -2.75q4.59375 -2.75 7.171875 -7.5625q2.578125 -4.828125 2.578125 -11.125q0 -6.3125 -2.578125 -11.1875q-2.578125 -4.875 -7.171875 -7.625q-4.578125 -2.75 -10.546875 -2.75q-5.953125 0 -10.546875 2.75q-4.578125 2.75 -7.21875 7.625q-2.640625 4.875 -2.640625 11.1875q0 6.296875 2.640625 11.125q2.640625 4.8125 7.21875 7.5625q4.59375 2.75 10.546875 2.75zm63.861694 9.859375q-5.046875 0 -8.9375 -2.75q-3.890625 -2.75 -6.078125 -7.5q-2.171875 -4.765625 -2.171875 -10.96875l0 -62.59375q0 -2.53125 1.59375 -4.125q1.609375 -1.609375 4.140625 -1.609375q2.515625 0 4.109375 1.609375q1.609375 1.59375 1.609375 4.125l0 62.59375q0 4.25 1.609375 7.0q1.609375 2.75 4.125 2.75l2.875 0q2.296875 0 3.71875 1.609375q1.4375 1.609375 1.4375 4.125q0 2.53125 -2.1875 4.140625q-2.171875 1.59375 -5.609375 1.59375l-0.234375 0zm26.4906 0q-2.515625 0 -4.1875 -1.65625q-1.65625 -1.671875 -1.65625 -4.1875l0 -51.03125q0 -2.625 1.65625 -4.234375q1.671875 -1.609375 4.1875 -1.609375q2.640625 0 4.234375 1.609375q1.609375 1.609375 1.609375 4.234375l0 51.03125q0 2.515625 -1.609375 4.1875q-1.59375 1.65625 -4.234375 1.65625zm0.03125 -72.921875q-3.09375 0 -5.328125 -2.234375q-2.234375 -2.234375 -2.234375 -5.328125q0 -3.09375 2.234375 -5.328125q2.234375 -2.25 5.328125 -2.25q3.09375 0 5.328125 2.25q2.234375 2.234375 2.234375 5.328125q0 3.09375 -2.234375 5.328125q-2.234375 2.234375 -5.328125 2.234375zm56.03241 73.375q-9.28125 0 -16.390625 -4.0625q-7.109375 -4.078125 -11.1875 -11.234375q-4.0625 -7.171875 -4.0625 -16.453125q0 -9.40625 4.0625 -16.5625q4.078125 -7.171875 11.1875 -11.234375q7.109375 -4.078125 16.390625 -4.078125q9.171875 0 16.28125 4.078125q7.109375 4.0625 11.171875 11.234375q4.078125 7.15625 4.078125 16.5625q0 9.28125 -4.015625 16.453125q-4.0 7.15625 -11.109375 11.234375q-7.109375 4.0625 -16.40625 4.0625zm0 -10.3125q5.96875 0 10.546875 -2.75q4.59375 -2.75 7.171875 -7.5625q2.578125 -4.828125 2.578125 -11.125q0 -6.3125 -2.578125 -11.1875q-2.578125 -4.875 -7.171875 -7.625q-4.578125 -2.75 -10.546875 -2.75q-5.953125 0 -10.546875 2.75q-4.578125 2.75 -7.21875 7.625q-2.640625 4.875 -2.640625 11.1875q0 6.296875 2.640625 11.125q2.640625 4.8125 7.21875 7.5625q4.59375 2.75 10.546875 2.75z" fill-rule="nonzero"/></g></g></svg>